<svg xmlns="http://www.w3.org/2000/svg" xmlns:xlink="http://www.w3.org/1999/xlink" width="500" zoomAndPan="magnify" viewBox="0 0 375 374.999991" height="500" preserveAspectRatio="xMidYMid meet" version="1.0"><defs><g/><clipPath id="2574d242cd"><path d="M 20.308594 20.308594 L 354.808594 20.308594 L 354.808594 354.808594 L 20.308594 354.808594 Z M 20.308594 20.308594 " clip-rule="nonzero"/></clipPath><clipPath id="1515771a8f"><rect x="0" width="245" y="0" height="375"/></clipPath><clipPath id="771f798dc1"><rect x="0" width="114" y="0" height="375"/></clipPath></defs><g clip-path="url(#2574d242cd)"><path fill="#1f3a93" d="M 187.5 354.691406 C 95.132812 354.691406 20.308594 279.351562 20.308594 187.5 C 20.308594 95.648438 95.132812 20.308594 187.5 20.308594 C 279.867188 20.308594 354.691406 95.132812 354.691406 187.5 C 354.691406 279.867188 279.351562 354.691406 187.5 354.691406 Z M 187.5 30.628906 C 100.808594 30.628906 30.628906 100.808594 30.628906 187.5 C 30.628906 274.191406 100.808594 344.371094 187.5 344.371094 C 274.191406 344.371094 344.371094 274.191406 344.371094 187.5 C 344.371094 100.808594 273.675781 30.628906 187.5 30.628906 Z M 187.5 30.628906 " fill-opacity="1" fill-rule="nonzero"/></g><g transform="matrix(1, 0, 0, 1, 72, 0)"><g clip-path="url(#1515771a8f)"><g fill="#1f3a93" fill-opacity="1"><g transform="translate(0.961325, 290.481086)"><g><path d="M 37.375 0 L 37.375 -247.21875 L 127.15625 -247.21875 C 143.726562 -247.21875 157.648438 -244.484375 168.921875 -239.015625 C 180.203125 -233.546875 188.660156 -225.820312 194.296875 -215.84375 C 199.929688 -205.875 202.75 -194.066406 202.75 -180.421875 C 202.75 -165.097656 198.914062 -152.445312 191.25 -142.46875 C 183.582031 -132.488281 171.632812 -125.019531 155.40625 -120.0625 L 155.40625 -116.515625 C 163.40625 -113.359375 169.941406 -108.394531 175.015625 -101.625 C 180.085938 -94.863281 184.765625 -84.773438 189.046875 -71.359375 L 211.875 0 L 181.953125 0 L 157.265625 -75.59375 C 154.328125 -84.5 150.941406 -91.488281 147.109375 -96.5625 C 143.273438 -101.632812 138.425781 -105.296875 132.5625 -107.546875 C 126.707031 -109.796875 119.269531 -110.921875 110.25 -110.921875 L 66.453125 -110.921875 L 66.453125 0 Z M 126.484375 -135.609375 C 141.929688 -135.609375 153.429688 -139.1875 160.984375 -146.34375 C 168.535156 -153.507812 172.3125 -164.421875 172.3125 -179.078125 C 172.3125 -193.734375 168.535156 -204.640625 160.984375 -211.796875 C 153.429688 -218.953125 141.929688 -222.53125 126.484375 -222.53125 L 66.453125 -222.53125 L 66.453125 -135.609375 Z M 126.484375 -135.609375 "/></g></g></g></g></g><g transform="matrix(1, 0, 0, 1, 116, 0)"><g clip-path="url(#771f798dc1)"><g fill="#1f3a93" fill-opacity="1"><g transform="translate(0.267663, 290.481086)"><g><path d="M 66.453125 0 L 37.375 0 L 37.375 -247.21875 L 66.453125 -247.21875 Z M 66.453125 0 "/></g></g></g></g></g></svg>